<svg width="306" height="345" viewBox="0 0 306 345" fill="none" xmlns="http://www.w3.org/2000/svg">
<path d="M305.984 101.239C305.982 95.449 304.745 90.3326 302.244 85.9415C299.787 81.6235 296.108 78.0045 291.173 75.143C250.436 51.6243 209.659 28.1776 168.936 4.6349C157.957 -1.71139 147.312 -1.48003 136.414 4.95737C120.2 14.5319 39.0189 61.1006 14.8282 75.1298C4.86569 80.9043 0.017959 89.7416 0.0155645 101.228C0 148.526 0.0155645 195.822 0 243.121C0 248.784 1.18649 253.801 3.57743 258.126C6.03542 262.574 9.76611 266.293 14.815 269.219C39.007 283.248 120.198 329.813 136.409 339.39C147.312 345.831 157.957 346.062 168.939 339.713C209.664 316.169 250.443 292.723 291.186 269.205C296.235 266.28 299.966 262.559 302.424 258.114C304.811 253.789 306 248.772 306 243.108C306 243.108 306 148.538 305.984 101.239Z" fill="#A179DC"/>
<path d="M153.468 171.714L3.57764 258.126C6.03563 262.574 9.76631 266.293 14.8152 269.219C39.0072 283.248 120.199 329.813 136.41 339.39C147.312 345.831 157.957 346.062 168.939 339.713C209.664 316.169 250.443 292.723 291.186 269.205C296.235 266.28 299.966 262.559 302.424 258.114L153.468 171.714Z" fill="#280068"/>
<path d="M305.985 101.239C305.982 95.449 304.745 90.3326 302.244 85.9415L153.468 171.714L302.424 258.114C304.811 253.789 305.998 248.772 306 243.108C306 243.108 306 148.538 305.985 101.239Z" fill="#390091"/>
<path d="M241.719 139.41V155.562H257.851V139.41H265.917V155.562H282.048V163.638H265.917V179.789H282.048V187.865H265.917V204.017H257.851V187.865H241.719V204.017H233.654V187.865H217.522V179.789H233.654V163.638H217.522V155.562H233.654V139.41H241.719ZM257.851 163.638H241.719V179.789H257.851V163.638Z" fill="white"/>
<path d="M153.797 58.2913C195.874 58.2913 232.61 81.1714 252.287 115.18L252.095 114.853L202.589 143.394C192.836 126.858 174.955 115.699 154.443 115.47L153.797 115.466C122.518 115.466 97.1592 140.855 97.1592 172.174C97.1592 182.416 99.8863 192.016 104.629 200.308C114.392 217.373 132.744 228.883 153.797 228.883C174.98 228.883 193.437 217.227 203.15 199.98L202.914 200.394L252.345 229.066C232.885 262.787 196.652 285.596 155.064 286.051L153.797 286.058C111.588 286.058 74.7473 263.037 55.1202 228.848C45.5385 212.158 40.0562 192.808 40.0562 172.174C40.0562 109.279 90.9787 58.2913 153.797 58.2913Z" fill="white"/>
</svg>
